<svg width="122" height="239" viewBox="0 0 122 239" fill="none" xmlns="http://www.w3.org/2000/svg">
<path opacity="0.6" d="M121.048 238.178C89.5759 238.585 59.231 226.474 36.689 204.507C14.1469 182.541 1.25421 152.52 0.847081 121.047C0.43995 89.5753 12.5518 59.2305 34.518 36.6884C56.4843 14.1463 86.5057 1.25363 117.978 0.846491L118.668 54.2331C101.355 54.4571 84.8403 61.5495 72.7565 73.9501C60.6726 86.3507 54.0098 103.044 54.2337 120.357C54.4577 137.67 61.5501 154.185 73.9507 166.269C86.3513 178.353 103.044 185.016 120.357 184.792L121.048 238.178Z" fill="url(#paint0_linear_479_339)"/>
<defs>
<linearGradient id="paint0_linear_479_339" x1="221.934" y1="128.557" x2="-12.189" y2="107.532" gradientUnits="userSpaceOnUse">
<stop stop-color="#B5DFBC" stop-opacity="0"/>
<stop offset="0.995857" stop-color="#017BEC" stop-opacity="0.56"/>
</linearGradient>
</defs>
</svg>
