<svg width="66" height="45" viewBox="0 0 66 45" fill="none" xmlns="http://www.w3.org/2000/svg">
<g clip-path="url(#clip0_479_385)">
<path d="M44.0241 14.1289C46.1307 12.1037 48.4049 10.7615 51.1819 10.2906C59.1057 8.99542 66.1917 15.0472 66.0002 22.9829C65.7368 33.2497 58.5072 42.0331 48.381 44.3879C43.4496 45.5417 38.6378 45.0708 34.0176 43.0457C33.3473 42.7631 32.8206 42.7395 32.1264 43.0221C18.1938 49.0033 2.46587 40.5731 0.287417 25.7851C-0.981354 17.1901 2.03497 9.93734 9.09699 4.68616C16.1351 -0.565019 23.9871 -1.3421 32.1264 2.09589C37.369 4.30939 41.1035 8.1006 43.5453 13.1634C43.665 13.4224 43.8086 13.6814 44.0241 14.1289ZM28.0567 39.3957C27.7216 39.0425 27.554 38.8541 27.3864 38.6893C22.9098 34.4507 20.6596 29.2466 20.3244 23.1948C20.2526 21.7113 20.8032 20.6987 21.8565 20.2749C23.628 19.5684 25.2559 20.7694 25.3037 22.8887C25.4474 28.1634 27.6498 32.4962 31.6476 35.9577C32.9642 37.088 32.9882 37.0645 34.2809 35.9813C40.4332 30.8714 42.3723 22.4413 39.0926 15.2592C35.813 8.1006 28.1764 4.02682 20.2287 5.11002C10.7727 6.45225 3.56707 15.3298 5.19492 25.5731C6.63127 34.592 15.8957 41.3031 25.3516 39.9373C26.2134 39.8196 27.0273 39.6077 28.0567 39.3957ZM38.0872 39.3015C40.0263 40.1493 41.9653 40.1257 43.9044 40.0786C53.2885 39.8196 61.0208 31.9782 61.0208 22.7474C61.0208 18.4146 57.7172 15.0237 53.4321 15.0001C49.0034 14.9766 45.7238 18.2497 45.6519 22.6532C45.5801 27.975 43.8326 32.7081 40.3853 36.8526C39.6911 37.6767 38.9011 38.4303 38.0872 39.3015Z" fill="white"/>
</g>
<defs>
<clipPath id="clip0_479_385">
<rect width="66" height="45" fill="white"/>
</clipPath>
</defs>
</svg>
